<mxfile host="app.diagrams.net" agent="Mozilla/5.0 (Windows NT 10.0; Win64; x64) AppleWebKit/537.36 (KHTML, like Gecko) Chrome/131.0.0.0 Safari/537.36 Edg/131.0.0.0" version="25.0.3">
  <diagram id="1Lgom-Fc3tGMboG9Ryg4" name="Overview - detailled">
    <mxGraphModel dx="3633" dy="2340" grid="0" gridSize="10" guides="1" tooltips="1" connect="1" arrows="1" fold="1" page="0" pageScale="1" pageWidth="2336" pageHeight="1654" math="0" shadow="0">
      <root>
        <mxCell id="0" />
        <mxCell id="1" parent="0" />
        <UserObject label="&lt;div style=&quot;font-size: 1px&quot;&gt;&lt;p style=&quot;align:left;margin-left:0;margin-right:0;margin-top:0px;margin-bottom:0px;text-indent:0;valign:bottom;direction:ltr;&quot;&gt;&lt;/p&gt;&lt;/div&gt;" tags="Arrière-plan" id="cqwywvfghNrjQBaoCvd_-3">
          <mxCell style="verticalAlign=bottom;align=left;vsdxID=1020;fillColor=#ecf3fb;gradientColor=none;shape=stencil(nZBLDsIwDAVP4y0yzoIDlHIBThARQyxCUqXhe3rSukhVFyy6s98by9KAaXpvOwbCvuR05ae44sHsgUii5yylTmBaMM05Zb7kdI9O985WknBM2OnNdqAJbT4d5cNTRpudxnp3S4/h30tb1Oo9saj7QdEgcYb+ylXwH3QluHhfh9GIupIQVOi8Xxqskdo37Rc=);strokeColor=#2e75b6;strokeWidth=3;points=[];labelBackgroundColor=none;rounded=1;html=1;whiteSpace=wrap;arcSize=17;" parent="1" vertex="1">
            <mxGeometry x="-1599" y="-1185" width="1295" height="690" as="geometry" />
          </mxCell>
        </UserObject>
        <UserObject label="" tags="Arrière-plan" id="cqwywvfghNrjQBaoCvd_-1">
          <mxCell style="vsdxID=1133;fillColor=none;gradientColor=none;strokeColor=none;points=[];labelBackgroundColor=none;rounded=0;html=1;whiteSpace=wrap;" parent="1" vertex="1">
            <mxGeometry x="-750" y="-1091" width="150" height="82" as="geometry" />
          </mxCell>
        </UserObject>
        <mxCell id="cqwywvfghNrjQBaoCvd_-6" value="" style="group" parent="1" vertex="1" connectable="0">
          <mxGeometry x="-1099.5" y="-679" width="296" height="140" as="geometry" />
        </mxCell>
        <mxCell id="cqwywvfghNrjQBaoCvd_-7" value="" style="verticalLabelPosition=bottom;verticalAlign=top;html=1;shape=mxgraph.basic.rect;fillColor2=none;strokeWidth=1;size=20;indent=5;fontSize=16;" parent="cqwywvfghNrjQBaoCvd_-6" vertex="1">
          <mxGeometry width="296" height="140" as="geometry" />
        </mxCell>
        <mxCell id="cqwywvfghNrjQBaoCvd_-8" value="" style="verticalLabelPosition=bottom;verticalAlign=top;html=1;shape=mxgraph.basic.rect;fillColor2=none;strokeWidth=1;size=20;indent=5;fontSize=16;" parent="cqwywvfghNrjQBaoCvd_-6" vertex="1">
          <mxGeometry x="206" y="10" width="70" height="79" as="geometry" />
        </mxCell>
        <mxCell id="cqwywvfghNrjQBaoCvd_-9" value="" style="verticalLabelPosition=bottom;verticalAlign=top;html=1;shape=mxgraph.basic.rect;fillColor2=none;strokeWidth=1;size=20;indent=5;fontSize=16;" parent="cqwywvfghNrjQBaoCvd_-6" vertex="1">
          <mxGeometry x="18.5" y="9" width="175" height="80" as="geometry" />
        </mxCell>
        <mxCell id="2a_0V4uSKZViWFAbpd20-46" style="edgeStyle=orthogonalEdgeStyle;rounded=0;orthogonalLoop=1;jettySize=auto;html=1;exitX=1;exitY=0.75;exitDx=0;exitDy=0;" edge="1" parent="cqwywvfghNrjQBaoCvd_-6" source="cqwywvfghNrjQBaoCvd_-10">
          <mxGeometry relative="1" as="geometry">
            <mxPoint x="395.5" y="-533" as="targetPoint" />
            <Array as="points">
              <mxPoint x="395" y="61" />
              <mxPoint x="395" y="-533" />
            </Array>
          </mxGeometry>
        </mxCell>
        <mxCell id="cqwywvfghNrjQBaoCvd_-10" value="" style="shape=image;imageAspect=0;aspect=fixed;verticalLabelPosition=bottom;verticalAlign=top;fontSize=16;image=https://ms-azuretools.gallerycdn.vsassets.io/extensions/ms-azuretools/vs-dapr/0.1.109.3/1704842308113/Microsoft.VisualStudio.Services.Icons.Default;" parent="cqwywvfghNrjQBaoCvd_-6" vertex="1">
          <mxGeometry x="218" y="26" width="46" height="46" as="geometry" />
        </mxCell>
        <mxCell id="cqwywvfghNrjQBaoCvd_-12" value="" style="aspect=fixed;html=1;points=[];align=center;image;fontSize=12;image=img/lib/azure2/other/Worker_Container_App.svg;" parent="cqwywvfghNrjQBaoCvd_-6" vertex="1">
          <mxGeometry x="87.19" y="15" width="37.61" height="36.51" as="geometry" />
        </mxCell>
        <mxCell id="cqwywvfghNrjQBaoCvd_-13" value="&amp;nbsp;DaprAPI&amp;nbsp;" style="endArrow=classic;startArrow=classic;html=1;rounded=0;fontSize=16;entryX=0.486;entryY=1.051;entryDx=0;entryDy=0;entryPerimeter=0;exitX=0.048;exitY=0.986;exitDx=0;exitDy=0;exitPerimeter=0;edgeStyle=orthogonalEdgeStyle;" parent="cqwywvfghNrjQBaoCvd_-6" target="cqwywvfghNrjQBaoCvd_-8" edge="1">
          <mxGeometry x="0.0243" width="50" height="50" relative="1" as="geometry">
            <mxPoint x="38.152000000000044" y="91.99599999999987" as="sourcePoint" />
            <mxPoint x="-204" y="-210" as="targetPoint" />
            <Array as="points">
              <mxPoint x="38" y="120" />
              <mxPoint x="240" y="120" />
            </Array>
            <mxPoint as="offset" />
          </mxGeometry>
        </mxCell>
        <mxCell id="2a_0V4uSKZViWFAbpd20-51" value="&lt;div style=&quot;font-size: 15px;&quot;&gt;&lt;font style=&quot;font-size: 15px; font-family: Themed; color: rgb(70, 114, 196); direction: ltr; letter-spacing: 0px; line-height: 120%; opacity: 1;&quot;&gt;&lt;font style=&quot;color: rgb(0, 0, 0); font-family: Helvetica; font-weight: 400; text-wrap-mode: nowrap; font-size: 14px;&quot;&gt;&lt;b&gt;Azure Container App&lt;/b&gt;&lt;/font&gt;&lt;div style=&quot;color: rgb(0, 0, 0); font-family: Helvetica; font-size: 12px; font-weight: 400; text-wrap-mode: nowrap;&quot;&gt;&lt;font style=&quot;font-size: 14px;&quot;&gt;&lt;i&gt;ca-backend-weu-dev&lt;/i&gt;&lt;/font&gt;&lt;/div&gt;&lt;/font&gt;&lt;/div&gt;" style="verticalAlign=middle;align=center;vsdxID=1130;fillColor=none;gradientColor=none;shape=stencil(nZBLDoAgDERP0z3SIyjew0SURgSD+Lu9kMZoXLhwN9O+tukAlrNpJg1SzDH4QW/URgNYgZTkjA4UkwJUgGXng+6DX1zLfmoymdXo17xh5zmRJ6Q42BWCfc2oJfdAr+Yv+AP9Cb7OJ3H/2JG1HNGz/84klThPVCc=);strokeColor=none;points=[];labelBackgroundColor=none;rounded=0;html=1;whiteSpace=wrap;fontSize=15;fontStyle=1" vertex="1" parent="cqwywvfghNrjQBaoCvd_-6">
          <mxGeometry x="18.499999999999954" y="44.5" width="177.5" height="51" as="geometry" />
        </mxCell>
        <mxCell id="A72nmTWWQ776kyNYY9JP-182" value="" style="edgeStyle=orthogonalEdgeStyle;rounded=0;orthogonalLoop=1;jettySize=auto;html=1;strokeColor=#007FFF;fontSize=14;" parent="1" source="cqwywvfghNrjQBaoCvd_-14" target="A72nmTWWQ776kyNYY9JP-181" edge="1">
          <mxGeometry relative="1" as="geometry" />
        </mxCell>
        <mxCell id="cqwywvfghNrjQBaoCvd_-14" value="&lt;font style=&quot;font-size: 14px;&quot;&gt;Azure Cosmos DB&lt;/font&gt;&lt;div&gt;&lt;font style=&quot;font-size: 14px;&quot;&gt;&lt;i style=&quot;font-weight: normal;&quot;&gt;cosmos-aca-frc-dev&lt;/i&gt;&lt;/font&gt;&lt;/div&gt;" style="aspect=fixed;html=1;points=[];align=center;image;fontSize=15;image=img/lib/azure2/databases/Azure_Cosmos_DB.svg;fontColor=#000000;fontStyle=1" parent="1" vertex="1">
          <mxGeometry x="-728" y="-1303" width="64" height="64" as="geometry" />
        </mxCell>
        <mxCell id="cqwywvfghNrjQBaoCvd_-25" value="" style="group" parent="1" vertex="1" connectable="0">
          <mxGeometry x="-1535" y="-679" width="296" height="140" as="geometry" />
        </mxCell>
        <mxCell id="cqwywvfghNrjQBaoCvd_-26" value="" style="verticalLabelPosition=bottom;verticalAlign=top;html=1;shape=mxgraph.basic.rect;fillColor2=none;strokeWidth=1;size=20;indent=5;fontSize=16;" parent="cqwywvfghNrjQBaoCvd_-25" vertex="1">
          <mxGeometry width="296" height="140" as="geometry" />
        </mxCell>
        <mxCell id="cqwywvfghNrjQBaoCvd_-30" value="" style="group" parent="cqwywvfghNrjQBaoCvd_-25" vertex="1" connectable="0">
          <mxGeometry x="18.5" y="9" width="260.5" height="112" as="geometry" />
        </mxCell>
        <mxCell id="cqwywvfghNrjQBaoCvd_-31" value="" style="verticalLabelPosition=bottom;verticalAlign=top;html=1;shape=mxgraph.basic.rect;fillColor2=none;strokeWidth=1;size=20;indent=5;fontSize=16;" parent="cqwywvfghNrjQBaoCvd_-30" vertex="1">
          <mxGeometry width="260.5" height="112" as="geometry" />
        </mxCell>
        <mxCell id="cqwywvfghNrjQBaoCvd_-33" value="" style="aspect=fixed;html=1;points=[];align=center;image;fontSize=12;image=img/lib/azure2/other/Worker_Container_App.svg;" parent="cqwywvfghNrjQBaoCvd_-30" vertex="1">
          <mxGeometry x="107.500542857143" y="13" width="41.21" height="40" as="geometry" />
        </mxCell>
        <mxCell id="2a_0V4uSKZViWFAbpd20-52" value="&lt;div style=&quot;font-size: 15px;&quot;&gt;&lt;font style=&quot;font-size: 15px; font-family: Themed; color: rgb(70, 114, 196); direction: ltr; letter-spacing: 0px; line-height: 120%; opacity: 1;&quot;&gt;&lt;font style=&quot;color: rgb(0, 0, 0); font-family: Helvetica; font-weight: 400; text-wrap-mode: nowrap; font-size: 14px;&quot;&gt;&lt;b&gt;Azure Container App&lt;/b&gt;&lt;/font&gt;&lt;div style=&quot;color: rgb(0, 0, 0); font-family: Helvetica; font-size: 12px; font-weight: 400; text-wrap-mode: nowrap;&quot;&gt;&lt;font style=&quot;font-size: 14px;&quot;&gt;&lt;i&gt;ca-frontend-weu-dev&lt;/i&gt;&lt;/font&gt;&lt;/div&gt;&lt;/font&gt;&lt;/div&gt;" style="verticalAlign=middle;align=center;vsdxID=1130;fillColor=none;gradientColor=none;shape=stencil(nZBLDoAgDERP0z3SIyjew0SURgSD+Lu9kMZoXLhwN9O+tukAlrNpJg1SzDH4QW/URgNYgZTkjA4UkwJUgGXng+6DX1zLfmoymdXo17xh5zmRJ6Q42BWCfc2oJfdAr+Yv+AP9Cb7OJ3H/2JG1HNGz/84klThPVCc=);strokeColor=none;points=[];labelBackgroundColor=none;rounded=0;html=1;whiteSpace=wrap;fontSize=15;fontStyle=1" vertex="1" parent="cqwywvfghNrjQBaoCvd_-30">
          <mxGeometry x="41.5" y="59" width="177.5" height="51" as="geometry" />
        </mxCell>
        <mxCell id="cqwywvfghNrjQBaoCvd_-55" value="" style="group;fontSize=15;fontStyle=1" parent="1" vertex="1" connectable="0">
          <mxGeometry x="-1046" y="-1291" width="124" height="101" as="geometry" />
        </mxCell>
        <mxCell id="cqwywvfghNrjQBaoCvd_-56" value="&lt;div style=&quot;&quot;&gt;&lt;font face=&quot;Helvetica&quot; style=&quot;color: rgb(0, 0, 0); direction: ltr; letter-spacing: 0px; line-height: 120%; opacity: 1; font-size: 14px;&quot;&gt;Azure Container Registry&lt;/font&gt;&lt;font style=&quot;font-size: 15px; font-family: Themed; color: rgb(70, 114, 196); direction: ltr; letter-spacing: 0px; line-height: 120%; opacity: 1;&quot;&gt;&lt;br style=&quot;font-size: 15px;&quot;&gt;&lt;/font&gt;&lt;/div&gt;&lt;div style=&quot;&quot;&gt;&lt;font face=&quot;Helvetica&quot; style=&quot;color: rgb(0, 0, 0); direction: ltr; letter-spacing: 0px; line-height: 120%; opacity: 1; font-size: 14px;&quot;&gt;&lt;i style=&quot;font-weight: normal;&quot;&gt;cracaweudev&lt;/i&gt;&lt;/font&gt;&lt;/div&gt;" style="verticalAlign=middle;align=center;vsdxID=1130;fillColor=none;gradientColor=none;shape=stencil(nZBLDoAgDERP0z3SIyjew0SURgSD+Lu9kMZoXLhwN9O+tukAlrNpJg1SzDH4QW/URgNYgZTkjA4UkwJUgGXng+6DX1zLfmoymdXo17xh5zmRJ6Q42BWCfc2oJfdAr+Yv+AP9Cb7OJ3H/2JG1HNGz/84klThPVCc=);strokeColor=none;points=[];labelBackgroundColor=none;rounded=0;html=1;whiteSpace=wrap;fontSize=15;fontStyle=1" parent="cqwywvfghNrjQBaoCvd_-55" vertex="1">
          <mxGeometry x="-43.5" y="50" width="211" height="51" as="geometry" />
        </mxCell>
        <mxCell id="2a_0V4uSKZViWFAbpd20-57" value="" style="image;aspect=fixed;html=1;points=[];align=center;fontSize=12;image=img/lib/azure2/containers/Container_Registries.svg;" vertex="1" parent="cqwywvfghNrjQBaoCvd_-55">
          <mxGeometry x="31.9" y="-4" width="60.2" height="54" as="geometry" />
        </mxCell>
        <mxCell id="cqwywvfghNrjQBaoCvd_-58" value="&lt;div&gt;&lt;font style=&quot;font-size: 14px;&quot;&gt;&lt;b&gt;Azure Application Insights&lt;/b&gt;&lt;/font&gt;&lt;/div&gt;&lt;font style=&quot;font-size: 14px;&quot;&gt;&lt;i&gt;appi-container-apss-template-weu-dev&lt;/i&gt;&lt;/font&gt;" style="aspect=fixed;html=1;points=[];align=center;image;fontSize=12;image=img/lib/azure2/devops/Application_Insights.svg;labelBackgroundColor=none;fontColor=#000000;" parent="1" vertex="1">
          <mxGeometry x="-169" y="-1037" width="44" height="63" as="geometry" />
        </mxCell>
        <mxCell id="cqwywvfghNrjQBaoCvd_-59" value="&lt;b&gt;&lt;font style=&quot;font-size: 14px;&quot;&gt;Azure Log Analytics Workspace&lt;/font&gt;&lt;/b&gt;&lt;div&gt;&lt;b&gt;&lt;font style=&quot;font-size: 14px;&quot;&gt;&lt;i&gt;log-container-apps-template-weu-dev&lt;/i&gt;&lt;/font&gt;&lt;/b&gt;&lt;/div&gt;" style="aspect=fixed;html=1;points=[];align=center;image;fontSize=12;image=img/lib/azure2/analytics/Log_Analytics_Workspaces.svg;labelBackgroundColor=none;fontColor=#000000;" parent="1" vertex="1">
          <mxGeometry x="-179" y="-907" width="64" height="64" as="geometry" />
        </mxCell>
        <mxCell id="Z7wuW3lw8WOkrXr4EB_d-4" style="rounded=0;orthogonalLoop=1;jettySize=auto;html=1;entryX=0.5;entryY=0;entryDx=0;entryDy=0;entryPerimeter=0;strokeColor=#FF8000;exitX=0.5;exitY=0;exitDx=0;exitDy=0;exitPerimeter=0;fillColor=#CC6600;" parent="1" source="0NSm3hm1O3wQ77DTg5K2-6" target="Z7wuW3lw8WOkrXr4EB_d-15" edge="1">
          <mxGeometry relative="1" as="geometry">
            <mxPoint x="-845.7247706422013" y="-322.9999999999998" as="sourcePoint" />
          </mxGeometry>
        </mxCell>
        <mxCell id="Z7wuW3lw8WOkrXr4EB_d-15" value="" style="verticalLabelPosition=bottom;html=1;verticalAlign=top;align=center;strokeColor=none;fillColor=#00BEF2;shape=mxgraph.azure.load_balancer_generic;pointerEvents=1;rotation=-180;" parent="1" vertex="1">
          <mxGeometry x="-1181.25" y="-452" width="37.5" height="50" as="geometry" />
        </mxCell>
        <mxCell id="A72nmTWWQ776kyNYY9JP-177" value="&lt;font style=&quot;font-size: 14px;&quot;&gt;&lt;b&gt;Azure Key Vault&lt;/b&gt;&lt;/font&gt;&lt;div&gt;&lt;font style=&quot;font-size: 14px;&quot;&gt;&lt;i style=&quot;&quot;&gt;kv-container-apps-template-weu-dev&lt;/i&gt;&lt;/font&gt;&lt;/div&gt;" style="aspect=fixed;html=1;points=[];align=center;image;fontSize=12;image=img/lib/azure2/security/Key_Vaults.svg;labelBackgroundColor=none;" parent="1" vertex="1">
          <mxGeometry x="-181" y="-1177" width="68" height="68" as="geometry" />
        </mxCell>
        <mxCell id="A72nmTWWQ776kyNYY9JP-181" value="&lt;font style=&quot;font-size: 14px;&quot;&gt;Azure Cosmos DB&lt;/font&gt;&lt;div&gt;&lt;font style=&quot;font-size: 14px; font-weight: normal;&quot;&gt;West US Failover Location&amp;nbsp;&lt;/font&gt;&lt;/div&gt;" style="aspect=fixed;html=1;points=[];align=center;image;fontSize=15;image=img/lib/azure2/databases/Azure_Cosmos_DB.svg;fontColor=#000000;fontStyle=1" parent="1" vertex="1">
          <mxGeometry x="-445" y="-1303" width="64" height="64" as="geometry" />
        </mxCell>
        <mxCell id="ZxQ8tFWKyaacZr_Nttia-1" value="Architecture Diagram - Overview" style="text;html=1;align=center;verticalAlign=middle;whiteSpace=wrap;rounded=0;fontSize=35;fontStyle=1" parent="1" vertex="1">
          <mxGeometry x="-1672" y="-1309" width="581" height="87" as="geometry" />
        </mxCell>
        <mxCell id="0NSm3hm1O3wQ77DTg5K2-6" value="&lt;font style=&quot;font-size: 18px;&quot;&gt;External&amp;nbsp;&lt;/font&gt;&lt;div&gt;&lt;font style=&quot;font-size: 18px;&quot;&gt;Users&lt;/font&gt;&lt;/div&gt;" style="sketch=0;pointerEvents=1;shadow=0;dashed=0;html=1;strokeColor=#FF8000;labelPosition=center;verticalLabelPosition=bottom;verticalAlign=top;align=center;fillColor=#CC6600;shape=mxgraph.mscae.intune.user_group" parent="1" vertex="1">
          <mxGeometry x="-1200" y="-323" width="75" height="53" as="geometry" />
        </mxCell>
        <mxCell id="Y0HcguP206PNq3NxiBtL-1" value="" style="group" parent="1" vertex="1" connectable="0">
          <mxGeometry x="-1107" y="-1146" width="296" height="140" as="geometry" />
        </mxCell>
        <mxCell id="Y0HcguP206PNq3NxiBtL-2" value="" style="verticalLabelPosition=bottom;verticalAlign=top;html=1;shape=mxgraph.basic.rect;fillColor2=none;strokeWidth=1;size=20;indent=5;fontSize=16;" parent="Y0HcguP206PNq3NxiBtL-1" vertex="1">
          <mxGeometry width="296" height="140" as="geometry" />
        </mxCell>
        <mxCell id="Y0HcguP206PNq3NxiBtL-3" value="" style="verticalLabelPosition=bottom;verticalAlign=top;html=1;shape=mxgraph.basic.rect;fillColor2=none;strokeWidth=1;size=20;indent=5;fontSize=16;" parent="Y0HcguP206PNq3NxiBtL-1" vertex="1">
          <mxGeometry x="206" y="10" width="70" height="79" as="geometry" />
        </mxCell>
        <mxCell id="Y0HcguP206PNq3NxiBtL-4" value="" style="verticalLabelPosition=bottom;verticalAlign=top;html=1;shape=mxgraph.basic.rect;fillColor2=none;strokeWidth=1;size=20;indent=5;fontSize=16;" parent="Y0HcguP206PNq3NxiBtL-1" vertex="1">
          <mxGeometry x="18.5" y="9" width="175" height="80" as="geometry" />
        </mxCell>
        <mxCell id="Y0HcguP206PNq3NxiBtL-5" value="" style="shape=image;imageAspect=0;aspect=fixed;verticalLabelPosition=bottom;verticalAlign=top;fontSize=16;image=https://ms-azuretools.gallerycdn.vsassets.io/extensions/ms-azuretools/vs-dapr/0.1.109.3/1704842308113/Microsoft.VisualStudio.Services.Icons.Default;" parent="Y0HcguP206PNq3NxiBtL-1" vertex="1">
          <mxGeometry x="218" y="26" width="46" height="46" as="geometry" />
        </mxCell>
        <mxCell id="Y0HcguP206PNq3NxiBtL-8" value="&amp;nbsp;DaprAPI&amp;nbsp;" style="endArrow=classic;startArrow=classic;html=1;rounded=0;fontSize=16;entryX=0.486;entryY=1.051;entryDx=0;entryDy=0;entryPerimeter=0;exitX=0.048;exitY=0.986;exitDx=0;exitDy=0;exitPerimeter=0;edgeStyle=orthogonalEdgeStyle;" parent="Y0HcguP206PNq3NxiBtL-1" target="Y0HcguP206PNq3NxiBtL-3" edge="1">
          <mxGeometry x="0.0243" width="50" height="50" relative="1" as="geometry">
            <mxPoint x="38.152000000000044" y="91.99599999999987" as="sourcePoint" />
            <mxPoint x="-204" y="-210" as="targetPoint" />
            <Array as="points">
              <mxPoint x="38" y="120" />
              <mxPoint x="240" y="120" />
            </Array>
            <mxPoint as="offset" />
          </mxGeometry>
        </mxCell>
        <mxCell id="Y0HcguP206PNq3NxiBtL-13" value="" style="shape=image;imageAspect=0;aspect=fixed;verticalLabelPosition=bottom;verticalAlign=top;fontSize=15;image=https://catalogartifact.azureedge.net/publicartifacts/Microsoft.ContainerAppJobs-1.0.0/Icons/Large.png;" parent="Y0HcguP206PNq3NxiBtL-1" vertex="1">
          <mxGeometry x="81" y="10" width="49" height="49" as="geometry" />
        </mxCell>
        <mxCell id="2a_0V4uSKZViWFAbpd20-50" value="&lt;div style=&quot;font-size: 15px;&quot;&gt;&lt;font style=&quot;font-size: 15px; font-family: Themed; color: rgb(70, 114, 196); direction: ltr; letter-spacing: 0px; line-height: 120%; opacity: 1;&quot;&gt;&lt;font style=&quot;color: rgb(0, 0, 0); font-family: Helvetica; font-weight: 400; text-wrap-mode: nowrap; font-size: 14px;&quot;&gt;&lt;b&gt;Azure Container App&lt;/b&gt;&lt;/font&gt;&lt;div style=&quot;color: rgb(0, 0, 0); font-family: Helvetica; font-size: 12px; font-weight: 400; text-wrap-mode: nowrap;&quot;&gt;&lt;font style=&quot;font-size: 14px;&quot;&gt;&lt;i&gt;ca-process-job-weu-dev&lt;/i&gt;&lt;/font&gt;&lt;/div&gt;&lt;/font&gt;&lt;/div&gt;" style="verticalAlign=middle;align=center;vsdxID=1130;fillColor=none;gradientColor=none;shape=stencil(nZBLDoAgDERP0z3SIyjew0SURgSD+Lu9kMZoXLhwN9O+tukAlrNpJg1SzDH4QW/URgNYgZTkjA4UkwJUgGXng+6DX1zLfmoymdXo17xh5zmRJ6Q42BWCfc2oJfdAr+Yv+AP9Cb7OJ3H/2JG1HNGz/84klThPVCc=);strokeColor=none;points=[];labelBackgroundColor=none;rounded=0;html=1;whiteSpace=wrap;fontSize=15;fontStyle=1" vertex="1" parent="Y0HcguP206PNq3NxiBtL-1">
          <mxGeometry x="16" y="42" width="177.5" height="51" as="geometry" />
        </mxCell>
        <mxCell id="2a_0V4uSKZViWFAbpd20-11" value="" style="group" vertex="1" connectable="0" parent="1">
          <mxGeometry x="-670" y="-679" width="296" height="140" as="geometry" />
        </mxCell>
        <mxCell id="2a_0V4uSKZViWFAbpd20-3" value="" style="verticalLabelPosition=bottom;verticalAlign=top;html=1;shape=mxgraph.basic.rect;fillColor2=none;strokeWidth=1;size=20;indent=5;fontSize=16;" vertex="1" parent="2a_0V4uSKZViWFAbpd20-11">
          <mxGeometry width="296" height="140" as="geometry" />
        </mxCell>
        <mxCell id="2a_0V4uSKZViWFAbpd20-4" value="" style="verticalLabelPosition=bottom;verticalAlign=top;html=1;shape=mxgraph.basic.rect;fillColor2=none;strokeWidth=1;size=20;indent=5;fontSize=16;" vertex="1" parent="2a_0V4uSKZViWFAbpd20-11">
          <mxGeometry x="206" y="10" width="70" height="79" as="geometry" />
        </mxCell>
        <mxCell id="2a_0V4uSKZViWFAbpd20-5" value="" style="verticalLabelPosition=bottom;verticalAlign=top;html=1;shape=mxgraph.basic.rect;fillColor2=none;strokeWidth=1;size=20;indent=5;fontSize=16;" vertex="1" parent="2a_0V4uSKZViWFAbpd20-11">
          <mxGeometry x="18.5" y="9" width="175" height="80" as="geometry" />
        </mxCell>
        <mxCell id="2a_0V4uSKZViWFAbpd20-47" style="edgeStyle=orthogonalEdgeStyle;rounded=0;orthogonalLoop=1;jettySize=auto;html=1;exitX=0.5;exitY=0;exitDx=0;exitDy=0;" edge="1" parent="2a_0V4uSKZViWFAbpd20-11" source="2a_0V4uSKZViWFAbpd20-6">
          <mxGeometry relative="1" as="geometry">
            <mxPoint x="-7.50177834250735" y="-532.0580361106181" as="targetPoint" />
            <Array as="points">
              <mxPoint x="241" y="-32" />
              <mxPoint x="-7" y="-32" />
            </Array>
          </mxGeometry>
        </mxCell>
        <mxCell id="2a_0V4uSKZViWFAbpd20-6" value="" style="shape=image;imageAspect=0;aspect=fixed;verticalLabelPosition=bottom;verticalAlign=top;fontSize=16;image=https://ms-azuretools.gallerycdn.vsassets.io/extensions/ms-azuretools/vs-dapr/0.1.109.3/1704842308113/Microsoft.VisualStudio.Services.Icons.Default;" vertex="1" parent="2a_0V4uSKZViWFAbpd20-11">
          <mxGeometry x="218" y="26" width="46" height="46" as="geometry" />
        </mxCell>
        <mxCell id="2a_0V4uSKZViWFAbpd20-9" value="&amp;nbsp;DaprAPI&amp;nbsp;" style="endArrow=classic;startArrow=classic;html=1;rounded=0;fontSize=16;entryX=0.486;entryY=1.051;entryDx=0;entryDy=0;entryPerimeter=0;exitX=0.048;exitY=0.986;exitDx=0;exitDy=0;exitPerimeter=0;edgeStyle=orthogonalEdgeStyle;" edge="1" parent="2a_0V4uSKZViWFAbpd20-11" target="2a_0V4uSKZViWFAbpd20-4">
          <mxGeometry x="0.0243" width="50" height="50" relative="1" as="geometry">
            <mxPoint x="38.1520000000005" y="91.99599999999987" as="sourcePoint" />
            <mxPoint x="-204" y="-210" as="targetPoint" />
            <Array as="points">
              <mxPoint x="38" y="120" />
              <mxPoint x="240" y="120" />
            </Array>
            <mxPoint as="offset" />
          </mxGeometry>
        </mxCell>
        <mxCell id="2a_0V4uSKZViWFAbpd20-10" value="" style="aspect=fixed;html=1;points=[];align=center;image;fontSize=14;image=img/lib/azure2/compute/Function_Apps.svg;labelBackgroundColor=none;" vertex="1" parent="2a_0V4uSKZViWFAbpd20-11">
          <mxGeometry x="81.7" y="17" width="39.67" height="35" as="geometry" />
        </mxCell>
        <mxCell id="2a_0V4uSKZViWFAbpd20-53" value="&lt;div style=&quot;font-size: 15px;&quot;&gt;&lt;font style=&quot;font-size: 15px; font-family: Themed; color: rgb(70, 114, 196); direction: ltr; letter-spacing: 0px; line-height: 120%; opacity: 1;&quot;&gt;&lt;font style=&quot;color: rgb(0, 0, 0); font-family: Helvetica; font-weight: 400; text-wrap-mode: nowrap; font-size: 14px;&quot;&gt;&lt;b&gt;Azure Function App&lt;/b&gt;&lt;/font&gt;&lt;div style=&quot;color: rgb(0, 0, 0); font-family: Helvetica; font-size: 12px; font-weight: 400; text-wrap-mode: nowrap;&quot;&gt;&lt;font style=&quot;font-size: 14px;&quot;&gt;&lt;i&gt;func-monitoring-weu-dev&lt;/i&gt;&lt;/font&gt;&lt;/div&gt;&lt;/font&gt;&lt;/div&gt;" style="verticalAlign=middle;align=center;vsdxID=1130;fillColor=none;gradientColor=none;shape=stencil(nZBLDoAgDERP0z3SIyjew0SURgSD+Lu9kMZoXLhwN9O+tukAlrNpJg1SzDH4QW/URgNYgZTkjA4UkwJUgGXng+6DX1zLfmoymdXo17xh5zmRJ6Q42BWCfc2oJfdAr+Yv+AP9Cb7OJ3H/2JG1HNGz/84klThPVCc=);strokeColor=none;points=[];labelBackgroundColor=none;rounded=0;html=1;whiteSpace=wrap;fontSize=15;fontStyle=1" vertex="1" parent="2a_0V4uSKZViWFAbpd20-11">
          <mxGeometry x="12.789999999999964" y="44.5" width="177.5" height="51" as="geometry" />
        </mxCell>
        <mxCell id="2a_0V4uSKZViWFAbpd20-17" style="edgeStyle=orthogonalEdgeStyle;rounded=0;orthogonalLoop=1;jettySize=auto;html=1;exitX=1;exitY=0.71;exitDx=0;exitDy=0;exitPerimeter=0;entryX=0.511;entryY=1.044;entryDx=0;entryDy=0;entryPerimeter=0;strokeColor=#FF8000;fillColor=#CC6600;" edge="1" parent="1" source="Z7wuW3lw8WOkrXr4EB_d-15" target="cqwywvfghNrjQBaoCvd_-26">
          <mxGeometry relative="1" as="geometry" />
        </mxCell>
        <mxCell id="2a_0V4uSKZViWFAbpd20-18" style="edgeStyle=orthogonalEdgeStyle;rounded=0;orthogonalLoop=1;jettySize=auto;html=1;exitX=0;exitY=0.71;exitDx=0;exitDy=0;exitPerimeter=0;entryX=0.511;entryY=1.044;entryDx=0;entryDy=0;entryPerimeter=0;strokeColor=#FF8000;fillColor=#CC6600;" edge="1" parent="1" source="Z7wuW3lw8WOkrXr4EB_d-15" target="cqwywvfghNrjQBaoCvd_-7">
          <mxGeometry relative="1" as="geometry" />
        </mxCell>
        <mxCell id="2a_0V4uSKZViWFAbpd20-19" value="&lt;span style=&quot;font-size: 18px;&quot;&gt;Internal&lt;/span&gt;&lt;div&gt;&lt;span style=&quot;font-size: 18px;&quot;&gt;Users&lt;/span&gt;&lt;/div&gt;" style="sketch=0;pointerEvents=1;shadow=0;dashed=0;html=1;strokeColor=#00CC00;labelPosition=center;verticalLabelPosition=bottom;verticalAlign=top;align=center;fillColor=#00CC00;shape=mxgraph.mscae.intune.user_group" vertex="1" parent="1">
          <mxGeometry x="-550" y="-323" width="75" height="53" as="geometry" />
        </mxCell>
        <mxCell id="2a_0V4uSKZViWFAbpd20-20" style="edgeStyle=orthogonalEdgeStyle;rounded=0;orthogonalLoop=1;jettySize=auto;html=1;entryX=0.532;entryY=1.022;entryDx=0;entryDy=0;entryPerimeter=0;strokeColor=#00CC00;fillColor=#00CC00;" edge="1" parent="1" source="2a_0V4uSKZViWFAbpd20-19" target="2a_0V4uSKZViWFAbpd20-3">
          <mxGeometry relative="1" as="geometry" />
        </mxCell>
        <mxCell id="2a_0V4uSKZViWFAbpd20-36" value="" style="group" vertex="1" connectable="0" parent="1">
          <mxGeometry x="-1164" y="-914" width="429" height="152.5" as="geometry" />
        </mxCell>
        <mxCell id="2a_0V4uSKZViWFAbpd20-29" value="" style="rounded=1;whiteSpace=wrap;html=1;" vertex="1" parent="2a_0V4uSKZViWFAbpd20-36">
          <mxGeometry width="429" height="152.5" as="geometry" />
        </mxCell>
        <mxCell id="A72nmTWWQ776kyNYY9JP-169" value="users-topic" style="verticalLabelPosition=bottom;html=1;verticalAlign=top;align=center;strokeColor=none;fillColor=#00BEF2;shape=mxgraph.azure.service_bus_topics_and_subscriptions;pointerEvents=1;" parent="2a_0V4uSKZViWFAbpd20-36" vertex="1">
          <mxGeometry x="95" y="77.49636919762133" width="45" height="37.272729733460736" as="geometry" />
        </mxCell>
        <mxCell id="A72nmTWWQ776kyNYY9JP-170" value="orders-topic" style="verticalLabelPosition=bottom;html=1;verticalAlign=top;align=center;strokeColor=none;fillColor=#00BEF2;shape=mxgraph.azure.service_bus_topics_and_subscriptions;pointerEvents=1;" parent="2a_0V4uSKZViWFAbpd20-36" vertex="1">
          <mxGeometry x="210" y="77.49910272061152" width="45" height="37.272729733460736" as="geometry" />
        </mxCell>
        <mxCell id="VJydPPaM6gwBkUBu_rKZ-1" value="" style="image;sketch=0;aspect=fixed;html=1;points=[];align=center;fontSize=12;image=img/lib/mscae/Service_Bus.svg;" parent="2a_0V4uSKZViWFAbpd20-36" vertex="1">
          <mxGeometry x="15.75" y="21" width="37.272729733460736" height="37.272729733460736" as="geometry" />
        </mxCell>
        <mxCell id="2a_0V4uSKZViWFAbpd20-23" value="process-queue" style="verticalLabelPosition=bottom;html=1;verticalAlign=top;align=center;strokeColor=none;fillColor=#00BEF2;shape=mxgraph.azure.service_bus_topics_and_subscriptions;pointerEvents=1;" vertex="1" parent="2a_0V4uSKZViWFAbpd20-36">
          <mxGeometry x="326" y="77.49910272061152" width="45" height="37.272729733460736" as="geometry" />
        </mxCell>
        <UserObject label="&lt;div style=&quot;&quot;&gt;&lt;p style=&quot;margin: 0px; text-indent: 0px; direction: ltr;&quot;&gt;&lt;font style=&quot;font-family: &amp;quot;Segoe UI&amp;quot;; color: rgb(0, 0, 0); direction: ltr; letter-spacing: 0px; line-height: 120%; opacity: 1;&quot;&gt;&lt;font style=&quot;text-wrap-mode: nowrap; font-family: Helvetica;&quot;&gt;&lt;b&gt;Azure Service Bus&lt;/b&gt;&lt;/font&gt;&lt;/font&gt;&lt;/p&gt;&lt;div style=&quot;text-wrap-mode: nowrap; font-size: 12px;&quot;&gt;&lt;font style=&quot;font-size: 14px;&quot;&gt;&lt;i&gt;sb-container-apps-template-weu-dev&lt;/i&gt;&lt;/font&gt;&lt;/div&gt;&lt;/div&gt;" tags="Arrière-plan" id="2a_0V4uSKZViWFAbpd20-33">
          <mxCell style="verticalAlign=middle;align=center;vsdxID=1039;fillColor=none;gradientColor=none;shape=stencil(nZBLDoAgDERP0z3SIyjew0SURgSD+Lu9kMZoXLhwN9O+tukAlrNpJg1SzDH4QW/URgNYgZTkjA4UkwJUgGXng+6DX1zLfmoymdXo17xh5zmRJ6Q42BWCfc2oJfdAr+Yv+AP9Cb7OJ3H/2JG1HNGz/84klThPVCc=);strokeColor=none;points=[];labelBackgroundColor=none;rounded=0;html=1;whiteSpace=wrap;fontSize=14;" vertex="1" parent="2a_0V4uSKZViWFAbpd20-36">
            <mxGeometry x="13" y="18.5" width="327" height="37.37" as="geometry" />
          </mxCell>
        </UserObject>
        <mxCell id="2a_0V4uSKZViWFAbpd20-38" style="edgeStyle=orthogonalEdgeStyle;rounded=0;orthogonalLoop=1;jettySize=auto;html=1;entryX=0.45;entryY=0;entryDx=0;entryDy=0;entryPerimeter=0;exitX=0.725;exitY=1.019;exitDx=0;exitDy=0;exitPerimeter=0;" edge="1" parent="1">
          <mxGeometry relative="1" as="geometry">
            <mxPoint x="-856.02" y="-1056.999" as="sourcePoint" />
            <mxPoint x="-823.52" y="-838.0008972793885" as="targetPoint" />
            <Array as="points">
              <mxPoint x="-855.77" y="-960.5" />
              <mxPoint x="-823.77" y="-960.5" />
            </Array>
          </mxGeometry>
        </mxCell>
        <mxCell id="2a_0V4uSKZViWFAbpd20-41" value="&lt;font style=&quot;font-size: 14px;&quot;&gt;Listener&lt;/font&gt;" style="edgeLabel;html=1;align=center;verticalAlign=middle;resizable=0;points=[];" vertex="1" connectable="0" parent="2a_0V4uSKZViWFAbpd20-38">
          <mxGeometry x="-0.5641" y="1" relative="1" as="geometry">
            <mxPoint x="32" y="62" as="offset" />
          </mxGeometry>
        </mxCell>
        <mxCell id="2a_0V4uSKZViWFAbpd20-40" style="edgeStyle=orthogonalEdgeStyle;rounded=0;orthogonalLoop=1;jettySize=auto;html=1;" edge="1" parent="1" source="cqwywvfghNrjQBaoCvd_-10">
          <mxGeometry relative="1" as="geometry">
            <mxPoint x="-815" y="-777" as="targetPoint" />
          </mxGeometry>
        </mxCell>
        <mxCell id="2a_0V4uSKZViWFAbpd20-42" value="&lt;font style=&quot;font-size: 14px;&quot;&gt;Sender&lt;/font&gt;" style="edgeLabel;html=1;align=center;verticalAlign=middle;resizable=0;points=[];" vertex="1" connectable="0" parent="2a_0V4uSKZViWFAbpd20-40">
          <mxGeometry x="0.3233" y="-3" relative="1" as="geometry">
            <mxPoint as="offset" />
          </mxGeometry>
        </mxCell>
        <mxCell id="2a_0V4uSKZViWFAbpd20-43" style="edgeStyle=orthogonalEdgeStyle;rounded=0;orthogonalLoop=1;jettySize=auto;html=1;exitX=0.56;exitY=-0.008;exitDx=0;exitDy=0;exitPerimeter=0;" edge="1" parent="1" source="cqwywvfghNrjQBaoCvd_-8">
          <mxGeometry relative="1" as="geometry">
            <mxPoint x="-855" y="-674" as="sourcePoint" />
            <mxPoint x="-1046" y="-775" as="targetPoint" />
            <Array as="points">
              <mxPoint x="-854" y="-707" />
              <mxPoint x="-1045" y="-707" />
              <mxPoint x="-1045" y="-775" />
            </Array>
          </mxGeometry>
        </mxCell>
        <mxCell id="2a_0V4uSKZViWFAbpd20-44" style="edgeStyle=orthogonalEdgeStyle;rounded=0;orthogonalLoop=1;jettySize=auto;html=1;exitX=0.546;exitY=0.017;exitDx=0;exitDy=0;exitPerimeter=0;" edge="1" parent="1">
          <mxGeometry relative="1" as="geometry">
            <mxPoint x="-855.2800000000002" y="-675.6569999999999" as="sourcePoint" />
            <mxPoint x="-936" y="-774" as="targetPoint" />
            <Array as="points">
              <mxPoint x="-855" y="-707" />
              <mxPoint x="-936" y="-707" />
            </Array>
          </mxGeometry>
        </mxCell>
        <mxCell id="2a_0V4uSKZViWFAbpd20-45" value="&lt;font style=&quot;font-size: 14px;&quot;&gt;Sender/Listener&lt;/font&gt;" style="edgeLabel;html=1;align=center;verticalAlign=middle;resizable=0;points=[];" vertex="1" connectable="0" parent="2a_0V4uSKZViWFAbpd20-44">
          <mxGeometry x="-0.377" y="7" relative="1" as="geometry">
            <mxPoint x="-88" y="6" as="offset" />
          </mxGeometry>
        </mxCell>
        <mxCell id="2a_0V4uSKZViWFAbpd20-49" value="" style="group" vertex="1" connectable="0" parent="1">
          <mxGeometry x="-1579" y="-1132" width="241" height="84" as="geometry" />
        </mxCell>
        <mxCell id="2a_0V4uSKZViWFAbpd20-48" value="&lt;div style=&quot;font-size: 15px;&quot;&gt;&lt;font style=&quot;font-size: 15px; font-family: Themed; color: rgb(70, 114, 196); direction: ltr; letter-spacing: 0px; line-height: 120%; opacity: 1;&quot;&gt;&lt;font style=&quot;color: rgb(0, 0, 0); font-family: Helvetica; font-weight: 400; text-wrap-mode: nowrap; font-size: 14px;&quot;&gt;&lt;b&gt;Azure Container App Environment&lt;/b&gt;&lt;/font&gt;&lt;div style=&quot;color: rgb(0, 0, 0); font-family: Helvetica; font-size: 12px; font-weight: 400; text-wrap-mode: nowrap;&quot;&gt;&lt;font style=&quot;font-size: 14px;&quot;&gt;&lt;i&gt;cae-container-apps-template-weu-dev&lt;/i&gt;&lt;/font&gt;&lt;/div&gt;&lt;/font&gt;&lt;/div&gt;" style="verticalAlign=middle;align=center;vsdxID=1130;fillColor=none;gradientColor=none;shape=stencil(nZBLDoAgDERP0z3SIyjew0SURgSD+Lu9kMZoXLhwN9O+tukAlrNpJg1SzDH4QW/URgNYgZTkjA4UkwJUgGXng+6DX1zLfmoymdXo17xh5zmRJ6Q42BWCfc2oJfdAr+Yv+AP9Cb7OJ3H/2JG1HNGz/84klThPVCc=);strokeColor=none;points=[];labelBackgroundColor=none;rounded=0;html=1;whiteSpace=wrap;fontSize=15;fontStyle=1" vertex="1" parent="2a_0V4uSKZViWFAbpd20-49">
          <mxGeometry y="33" width="241" height="51" as="geometry" />
        </mxCell>
        <mxCell id="2a_0V4uSKZViWFAbpd20-56" value="&lt;font style=&quot;font-size: 14px;&quot;&gt;&lt;b&gt;Azure Storage Account&lt;/b&gt;&lt;/font&gt;&lt;div&gt;&lt;span style=&quot;font-size: 14px;&quot;&gt;&lt;i&gt;safuncacaweudev&lt;/i&gt;&lt;br&gt;&lt;/span&gt;&lt;div&gt;&lt;font style=&quot;font-size: 14px;&quot;&gt;&lt;i&gt;(function app storage)&lt;/i&gt;&lt;/font&gt;&lt;/div&gt;&lt;/div&gt;" style="image;aspect=fixed;html=1;points=[];align=center;fontSize=12;image=img/lib/azure2/storage/Storage_Accounts.svg;" vertex="1" parent="1">
          <mxGeometry x="-176.37" y="-746" width="58.75" height="47" as="geometry" />
        </mxCell>
        <mxCell id="cqwywvfghNrjQBaoCvd_-46" value="" style="aspect=fixed;html=1;points=[];align=center;image;fontSize=12;image=img/lib/azure2/other/Container_App_Environments.svg;" parent="1" vertex="1">
          <mxGeometry x="-1491" y="-1160" width="58" height="58" as="geometry" />
        </mxCell>
        <mxCell id="2a_0V4uSKZViWFAbpd20-58" value="&lt;b&gt;&lt;font style=&quot;font-size: 14px;&quot;&gt;Azure Managed Identity&lt;/font&gt;&lt;/b&gt;&lt;div&gt;&lt;b&gt;&lt;font style=&quot;font-size: 14px;&quot;&gt;&lt;i&gt;id-apps-weu-dev&lt;/i&gt;&lt;/font&gt;&lt;/b&gt;&lt;/div&gt;&lt;div&gt;&lt;b&gt;&lt;font style=&quot;font-size: 14px;&quot;&gt;&lt;i&gt;(used by container apps)&lt;/i&gt;&lt;/font&gt;&lt;/b&gt;&lt;/div&gt;" style="image;aspect=fixed;html=1;points=[];align=center;fontSize=12;image=img/lib/azure2/identity/Entra_Managed_Identities.svg;" vertex="1" parent="1">
          <mxGeometry x="-181" y="-606" width="68" height="60.440000000000005" as="geometry" />
        </mxCell>
      </root>
    </mxGraphModel>
  </diagram>
</mxfile>
